<svg xmlns="http://www.w3.org/2000/svg" xmlns:xlink="http://www.w3.org/1999/xlink" width="500" zoomAndPan="magnify" viewBox="0 0 375 374.999991" height="500" preserveAspectRatio="xMidYMid meet" version="1.0"><path fill="#de7a0d" d="M 375 187.5 C 375 190.570312 374.925781 193.636719 374.773438 196.699219 C 374.625 199.765625 374.398438 202.824219 374.097656 205.878906 C 373.796875 208.933594 373.421875 211.976562 372.96875 215.011719 C 372.519531 218.046875 371.996094 221.070312 371.398438 224.078125 C 370.796875 227.089844 370.125 230.082031 369.378906 233.058594 C 368.636719 236.035156 367.816406 238.992188 366.925781 241.929688 C 366.035156 244.863281 365.074219 247.777344 364.039062 250.667969 C 363.003906 253.554688 361.902344 256.417969 360.726562 259.253906 C 359.554688 262.089844 358.308594 264.894531 356.996094 267.667969 C 355.6875 270.441406 354.308594 273.179688 352.859375 275.886719 C 351.414062 278.59375 349.902344 281.261719 348.324219 283.894531 C 346.746094 286.527344 345.105469 289.117188 343.402344 291.667969 C 341.695312 294.222656 339.929688 296.730469 338.101562 299.195312 C 336.273438 301.660156 334.386719 304.078125 332.4375 306.449219 C 330.492188 308.820312 328.488281 311.144531 326.429688 313.417969 C 324.367188 315.691406 322.253906 317.914062 320.082031 320.082031 C 317.914062 322.253906 315.691406 324.367188 313.417969 326.429688 C 311.144531 328.488281 308.820312 330.492188 306.449219 332.4375 C 304.078125 334.386719 301.660156 336.273438 299.195312 338.101562 C 296.730469 339.929688 294.222656 341.695312 291.667969 343.402344 C 289.117188 345.105469 286.527344 346.746094 283.894531 348.324219 C 281.261719 349.902344 278.59375 351.414062 275.886719 352.859375 C 273.179688 354.308594 270.441406 355.6875 267.667969 356.996094 C 264.894531 358.308594 262.089844 359.554688 259.253906 360.726562 C 256.417969 361.902344 253.554688 363.003906 250.667969 364.039062 C 247.777344 365.074219 244.863281 366.035156 241.929688 366.925781 C 238.992188 367.816406 236.035156 368.636719 233.058594 369.378906 C 230.082031 370.125 227.089844 370.796875 224.078125 371.398438 C 221.070312 371.996094 218.046875 372.519531 215.011719 372.96875 C 211.976562 373.421875 208.933594 373.796875 205.878906 374.097656 C 202.824219 374.398438 199.765625 374.625 196.699219 374.773438 C 193.636719 374.925781 190.570312 375 187.5 375 C 184.429688 375 181.363281 374.925781 178.300781 374.773438 C 175.234375 374.625 172.175781 374.398438 169.121094 374.097656 C 166.066406 373.796875 163.023438 373.421875 159.988281 372.96875 C 156.953125 372.519531 153.929688 371.996094 150.921875 371.398438 C 147.910156 370.796875 144.917969 370.125 141.941406 369.378906 C 138.964844 368.636719 136.007812 367.816406 133.070312 366.925781 C 130.136719 366.035156 127.222656 365.074219 124.332031 364.039062 C 121.445312 363.003906 118.582031 361.902344 115.746094 360.726562 C 112.910156 359.554688 110.105469 358.308594 107.332031 356.996094 C 104.558594 355.6875 101.820312 354.308594 99.113281 352.859375 C 96.40625 351.414062 93.738281 349.902344 91.105469 348.324219 C 88.472656 346.746094 85.882812 345.105469 83.332031 343.402344 C 80.777344 341.695312 78.269531 339.929688 75.804688 338.101562 C 73.339844 336.273438 70.921875 334.386719 68.550781 332.4375 C 66.179688 330.492188 63.855469 328.488281 61.582031 326.429688 C 59.308594 324.367188 57.085938 322.253906 54.917969 320.082031 C 52.746094 317.914062 50.632812 315.691406 48.570312 313.417969 C 46.511719 311.144531 44.507812 308.820312 42.558594 306.449219 C 40.613281 304.078125 38.726562 301.660156 36.898438 299.195312 C 35.070312 296.730469 33.304688 294.222656 31.597656 291.667969 C 29.894531 289.117188 28.253906 286.527344 26.675781 283.894531 C 25.097656 281.261719 23.585938 278.59375 22.140625 275.886719 C 20.691406 273.179688 19.3125 270.441406 18.003906 267.667969 C 16.691406 264.894531 15.445312 262.089844 14.273438 259.253906 C 13.097656 256.417969 11.996094 253.554688 10.960938 250.667969 C 9.925781 247.777344 8.964844 244.863281 8.074219 241.929688 C 7.183594 238.992188 6.363281 236.035156 5.621094 233.058594 C 4.875 230.082031 4.203125 227.089844 3.601562 224.078125 C 3.003906 221.070312 2.480469 218.046875 2.03125 215.011719 C 1.578125 211.976562 1.203125 208.933594 0.902344 205.878906 C 0.601562 202.824219 0.375 199.765625 0.226562 196.699219 C 0.0742188 193.636719 0 190.570312 0 187.5 C 0 184.429688 0.0742188 181.363281 0.226562 178.300781 C 0.375 175.234375 0.601562 172.175781 0.902344 169.121094 C 1.203125 166.066406 1.578125 163.023438 2.03125 159.988281 C 2.480469 156.953125 3.003906 153.929688 3.601562 150.921875 C 4.203125 147.910156 4.875 144.917969 5.621094 141.941406 C 6.363281 138.964844 7.183594 136.007812 8.074219 133.070312 C 8.964844 130.136719 9.925781 127.222656 10.960938 124.332031 C 11.996094 121.445312 13.097656 118.582031 14.273438 115.746094 C 15.445312 112.910156 16.691406 110.105469 18.003906 107.332031 C 19.3125 104.558594 20.691406 101.820312 22.140625 99.113281 C 23.585938 96.40625 25.097656 93.738281 26.675781 91.105469 C 28.253906 88.472656 29.894531 85.882812 31.597656 83.332031 C 33.304688 80.777344 35.070312 78.269531 36.898438 75.804688 C 38.726562 73.339844 40.613281 70.921875 42.558594 68.550781 C 44.507812 66.179688 46.511719 63.855469 48.570312 61.582031 C 50.632812 59.308594 52.746094 57.085938 54.917969 54.917969 C 57.085938 52.746094 59.308594 50.632812 61.582031 48.570312 C 63.855469 46.511719 66.179688 44.507812 68.550781 42.558594 C 70.921875 40.613281 73.339844 38.726562 75.804688 36.898438 C 78.269531 35.070312 80.777344 33.304688 83.332031 31.597656 C 85.882812 29.894531 88.472656 28.253906 91.105469 26.675781 C 93.738281 25.097656 96.40625 23.585938 99.113281 22.140625 C 101.820312 20.691406 104.558594 19.3125 107.332031 18.003906 C 110.105469 16.691406 112.910156 15.445312 115.746094 14.273438 C 118.582031 13.097656 121.445312 11.996094 124.332031 10.960938 C 127.222656 9.925781 130.136719 8.964844 133.070312 8.074219 C 136.007812 7.183594 138.964844 6.363281 141.941406 5.617188 C 144.917969 4.875 147.910156 4.203125 150.921875 3.601562 C 153.929688 3.003906 156.953125 2.480469 159.988281 2.03125 C 163.023438 1.578125 166.066406 1.203125 169.121094 0.902344 C 172.175781 0.601562 175.234375 0.375 178.300781 0.226562 C 181.363281 0.0742188 184.429688 0 187.5 0 C 190.570312 0 193.636719 0.0742188 196.699219 0.226562 C 199.765625 0.375 202.824219 0.601562 205.878906 0.902344 C 208.933594 1.203125 211.976562 1.578125 215.011719 2.03125 C 218.046875 2.480469 221.070312 3.003906 224.078125 3.601562 C 227.089844 4.203125 230.082031 4.875 233.058594 5.617188 C 236.035156 6.363281 238.992188 7.183594 241.929688 8.074219 C 244.863281 8.964844 247.777344 9.925781 250.667969 10.960938 C 253.554688 11.996094 256.417969 13.097656 259.253906 14.273438 C 262.089844 15.445312 264.894531 16.691406 267.667969 18.003906 C 270.441406 19.3125 273.179688 20.691406 275.886719 22.140625 C 278.59375 23.585938 281.261719 25.097656 283.894531 26.675781 C 286.527344 28.253906 289.117188 29.894531 291.667969 31.597656 C 294.222656 33.304688 296.730469 35.070312 299.195312 36.898438 C 301.660156 38.726562 304.078125 40.613281 306.449219 42.558594 C 308.820312 44.507812 311.144531 46.511719 313.417969 48.570312 C 315.691406 50.632812 317.914062 52.746094 320.082031 54.917969 C 322.253906 57.085938 324.367188 59.308594 326.429688 61.582031 C 328.488281 63.855469 330.492188 66.179688 332.4375 68.550781 C 334.386719 70.921875 336.273438 73.339844 338.101562 75.804688 C 339.929688 78.269531 341.695312 80.777344 343.402344 83.332031 C 345.105469 85.882812 346.746094 88.472656 348.324219 91.105469 C 349.902344 93.738281 351.414062 96.40625 352.859375 99.113281 C 354.308594 101.820312 355.6875 104.558594 356.996094 107.332031 C 358.308594 110.105469 359.554688 112.910156 360.726562 115.746094 C 361.902344 118.582031 363.003906 121.445312 364.039062 124.332031 C 365.074219 127.222656 366.035156 130.136719 366.925781 133.070312 C 367.816406 136.007812 368.636719 138.964844 369.378906 141.941406 C 370.125 144.917969 370.796875 147.910156 371.398438 150.921875 C 371.996094 153.929688 372.519531 156.953125 372.96875 159.988281 C 373.421875 163.023438 373.796875 166.066406 374.097656 169.121094 C 374.398438 172.175781 374.625 175.234375 374.773438 178.300781 C 374.925781 181.363281 375 184.429688 375 187.5 Z M 375 187.5 " fill-opacity="1" fill-rule="nonzero"/><path fill="#97582a" d="M 254.292969 19.742188 C 254.640625 23.242188 254.503906 26.667969 251.902344 29.476562 C 250.261719 31.246094 248.515625 32.910156 246.640625 34.402344 C 240.320312 39.429688 233.359375 43.339844 225.878906 46.347656 C 223.796875 47.183594 221.722656 48.171875 220.070312 49.78125 C 219.257812 50.574219 218.746094 51.570312 219.132812 52.742188 C 219.527344 53.945312 220.53125 54.5625 221.695312 54.726562 C 223.652344 55.003906 225.636719 55.132812 227.609375 55.316406 C 229.808594 55.519531 232.019531 55.640625 234.207031 55.929688 C 238 56.429688 241.761719 57.136719 245.484375 58.039062 C 253.070312 59.867188 260.742188 61.367188 267.734375 65.136719 C 270.648438 66.710938 273.804688 67.140625 277.042969 66 C 279.207031 65.238281 280.625 63.601562 281.878906 61.796875 C 284.734375 57.679688 288.433594 54.714844 293.199219 53.09375 C 297.0625 51.777344 300.738281 50.007812 304.34375 48.09375 C 306.152344 47.132812 307.820312 46.066406 308.707031 44.4375 C 292.394531 30.601562 273.683594 19.507812 253.285156 11.867188 C 253.648438 14.488281 254.03125 17.109375 254.292969 19.742188 Z M 254.292969 19.742188 " fill-opacity="1" fill-rule="nonzero"/><path fill="#97582a" d="M 324.71875 296.652344 C 326.480469 289.316406 329.757812 282.792969 334.417969 276.921875 C 335.539062 275.503906 336.535156 273.988281 337.585938 272.515625 C 337.144531 272.167969 337.355469 271.675781 337.3125 271.242188 C 337.015625 268.039062 336.78125 264.832031 336.3125 261.648438 C 335.730469 257.695312 335 253.734375 335.441406 249.722656 C 335.828125 246.175781 335.59375 242.628906 335.675781 239.082031 C 335.714844 237.316406 335.261719 235.667969 334.402344 234.125 C 332.515625 230.730469 329.144531 230.199219 326.289062 232.84375 C 325.003906 234.039062 324.042969 235.460938 323.269531 237.019531 C 320.734375 242.101562 318.132812 247.152344 315.707031 252.289062 C 313.285156 257.425781 311.042969 262.644531 308.722656 267.828125 C 309.792969 267.921875 310.871094 267.792969 311.921875 268.222656 C 314.757812 269.382812 316.5 272.09375 316.667969 275.328125 C 316.894531 279.710938 315.886719 283.75 313.335938 287.261719 C 311.394531 289.933594 308.742188 291.78125 305.296875 291.914062 C 302.410156 292.027344 300.132812 289.625 300.039062 286.679688 C 300.011719 285.703125 300.316406 284.691406 299.824219 283.746094 C 299.570312 284.058594 299.273438 284.339844 299.0625 284.679688 C 296.613281 288.660156 294.164062 292.644531 291.738281 296.636719 C 289.898438 299.664062 288.175781 302.761719 285.75 305.378906 C 282.238281 309.167969 277.949219 311.832031 273.382812 314.109375 C 267.183594 317.199219 260.785156 319.878906 254.816406 323.441406 C 245.628906 328.917969 236.355469 334.230469 226.683594 338.820312 C 225.9375 339.175781 225.164062 339.414062 224.363281 339.515625 C 222.664062 339.734375 220.964844 339.929688 219.257812 340.0625 C 213.058594 340.550781 206.851562 340.878906 200.679688 341.714844 C 196.042969 342.339844 191.367188 342.738281 186.738281 343.4375 C 180.535156 344.382812 174.289062 344.828125 168.042969 345.234375 C 162.636719 345.582031 157.210938 345.738281 151.789062 345.789062 C 145.191406 345.855469 138.617188 346.148438 132.09375 347.199219 C 126.175781 348.15625 120.578125 349.996094 115.855469 353.847656 C 114.082031 355.292969 112.527344 356.941406 111.761719 359.074219 C 124.886719 364.875 138.800781 369.214844 153.300781 371.882812 C 154.484375 370.714844 156.058594 370.136719 157.636719 369.578125 C 163.390625 367.539062 169.253906 365.875 175.085938 364.082031 C 183.628906 361.457031 191.964844 358.183594 200.613281 355.863281 C 206.320312 354.332031 212.023438 352.808594 217.898438 352.164062 C 222.871094 351.621094 227.871094 351.34375 232.878906 351.589844 C 233.910156 351.644531 234.945312 351.855469 235.898438 352.285156 C 237.511719 353.011719 237.804688 355.207031 236.410156 356.316406 C 235.738281 356.851562 234.992188 357.285156 234.171875 357.582031 C 232.972656 358.015625 231.855469 358.609375 230.808594 359.34375 C 230.558594 359.519531 230.199219 359.71875 230.3125 360.074219 C 230.453125 360.492188 230.839844 360.296875 231.128906 360.234375 C 232.492188 359.933594 233.859375 359.640625 235.214844 359.304688 C 239.949219 358.136719 244.511719 356.339844 249.25 355.210938 C 253.804688 354.128906 257.707031 352.015625 261.296875 349.078125 C 263.886719 346.964844 266.566406 344.941406 269.367188 343.125 C 274.375 339.875 279.472656 336.753906 284.597656 333.6875 C 288.414062 331.410156 292.496094 330.089844 297.019531 331.066406 C 297.953125 331.265625 298.828125 331.527344 299.625 331.855469 C 299.96875 332 300.292969 332.152344 300.605469 332.320312 C 301.019531 332.542969 301.40625 332.792969 301.757812 333.066406 C 302.425781 333.582031 302.972656 334.195312 303.378906 334.910156 C 309.265625 330.273438 314.867188 325.296875 320.15625 320.003906 C 320.390625 318.050781 320.753906 316.113281 321.0625 314.175781 C 322 308.28125 323.328125 302.457031 324.71875 296.652344 Z M 297.386719 323.164062 C 295.921875 324.199219 294.351562 324.628906 292.582031 323.695312 C 290.585938 322.636719 289.738281 320.925781 289.480469 319.300781 C 289.351562 316.359375 291.5625 313.613281 294.75 315.46875 C 295.082031 315.664062 295.421875 315.679688 295.769531 315.757812 C 297.554688 316.15625 298.796875 317.246094 299.171875 319.035156 C 299.535156 320.753906 298.773438 322.183594 297.386719 323.164062 Z M 303.3125 306.4375 C 302.425781 306.917969 301.5625 306.824219 300.792969 306.183594 C 300.148438 305.644531 299.988281 304.898438 300.058594 304.183594 C 300.070312 301.617188 301.125 300.308594 303.015625 300.417969 C 303.0625 300.417969 303.105469 300.417969 303.152344 300.417969 C 304.1875 300.480469 304.640625 301.226562 304.894531 302.070312 C 305.296875 303.433594 304.386719 305.851562 303.3125 306.4375 Z M 303.3125 306.4375 " fill-opacity="1" fill-rule="nonzero"/><path fill="#97582a" d="M 155.367188 251.695312 C 154.457031 248.246094 153.917969 244.691406 152.628906 241.347656 C 151.488281 238.382812 149.542969 236.242188 146.296875 235.617188 C 143.742188 235.125 141.167969 234.71875 138.617188 234.207031 C 135.144531 233.511719 131.589844 233.097656 128.488281 231.109375 C 127.179688 230.269531 126.476562 229.191406 126.574219 227.636719 C 126.621094 226.828125 126.753906 226.023438 126.851562 225.21875 C 123.894531 224.421875 120.878906 223.859375 117.84375 223.628906 C 115.875 223.476562 114.214844 224.511719 113.46875 226.453125 C 111.386719 231.871094 108.171875 236.640625 105.085938 241.488281 C 103.753906 243.582031 102.550781 245.765625 101.292969 247.910156 C 100.652344 249.457031 99.929688 250.980469 99.390625 252.5625 C 98.503906 255.15625 98.277344 257.429688 101.289062 259.613281 C 103.714844 261.378906 106.34375 262.78125 108.90625 264.300781 C 111.789062 266.011719 114.652344 267.761719 116.796875 270.402344 C 120.246094 274.65625 123.648438 278.941406 127 283.273438 C 127.546875 283.976562 128.539062 284.484375 128.425781 285.617188 C 129.109375 285.292969 129.847656 285.425781 130.558594 285.335938 C 135.933594 284.664062 141.183594 282.792969 146.710938 283.710938 C 146.71875 283.222656 147.023438 282.871094 147.242188 282.476562 C 149.65625 278.15625 152.246094 273.929688 154.347656 269.433594 C 155.027344 267.972656 155.539062 266.488281 155.390625 264.839844 C 155.210938 262.789062 155.554688 260.75 155.730469 258.722656 C 155.839844 257.480469 155.679688 256.164062 156.207031 254.964844 C 156.257812 253.792969 155.65625 252.78125 155.367188 251.695312 Z M 155.367188 251.695312 " fill-opacity="1" fill-rule="nonzero"/><path fill="#97582a" d="M 345.449219 114.746094 C 345.910156 119.0625 347.109375 122.953125 350.191406 126.183594 C 353.3125 129.449219 357.046875 131.953125 360.417969 134.898438 C 363.703125 137.769531 366.800781 140.824219 369.109375 144.558594 C 369.5 145.191406 369.917969 145.710938 370.40625 146.082031 C 366.125 127.09375 358.960938 109.195312 349.398438 92.867188 C 349.023438 94.117188 348.6875 95.375 348.328125 96.628906 C 346.625 102.542969 344.78125 108.425781 345.449219 114.746094 Z M 345.449219 114.746094 " fill-opacity="1" fill-rule="nonzero"/><path fill="#97582a" d="M 297.578125 108.066406 C 293.917969 108.972656 290.441406 110.339844 287.082031 112.035156 C 285.417969 112.875 285.410156 112.878906 286.605469 114.402344 C 288.722656 117.105469 290.050781 120.121094 290.265625 123.589844 C 290.648438 129.757812 289.898438 135.804688 288.371094 141.769531 C 289.050781 142.402344 289.15625 143.308594 289.347656 144.117188 C 290.820312 150.394531 292.726562 156.542969 294.523438 162.730469 C 295.886719 167.433594 296.785156 172.261719 297.28125 177.132812 C 297.644531 180.695312 297.988281 184.246094 298.683594 187.769531 C 299.414062 191.464844 300.996094 194.9375 301.488281 198.695312 C 301.5625 199.265625 301.828125 199.609375 302.5 199.132812 C 303.382812 198.503906 304.347656 197.988281 305.253906 197.394531 C 308.339844 195.378906 310.945312 192.765625 313.621094 190.261719 C 315.699219 188.316406 317.800781 186.289062 319.40625 183.957031 C 323.398438 178.15625 324.710938 171.421875 325.332031 164.535156 C 325.757812 159.84375 324.722656 155.199219 324.78125 150.511719 C 324.832031 146.738281 324.566406 142.984375 324.351562 139.214844 C 324.007812 133.1875 324.085938 127.113281 325.136719 121.128906 C 325.421875 119.515625 325.476562 117.789062 326.417969 116.335938 C 325.972656 114.003906 326.019531 111.632812 326.234375 109.304688 C 326.300781 108.59375 326.375 107.886719 326.445312 107.179688 C 326.753906 104.117188 327.082031 101.058594 326.957031 97.964844 C 325.480469 97.808594 323.980469 97.78125 322.550781 98.085938 C 317.617188 99.132812 312.757812 100.4375 308.03125 102.246094 C 307.226562 102.554688 306.449219 103.3125 305.4375 102.902344 C 303.519531 105.707031 300.78125 107.273438 297.578125 108.066406 Z M 297.578125 108.066406 " fill-opacity="1" fill-rule="nonzero"/><path fill="#97582a" d="M 333.246094 224.226562 C 334.183594 227.5 338.871094 229.984375 342 228.835938 C 345.933594 227.390625 349.046875 221.550781 348.015625 217.445312 C 347.351562 214.808594 346.136719 212.488281 344.195312 210.507812 C 342.515625 208.796875 340.691406 207.585938 338.238281 208.019531 C 335.929688 208.425781 334.605469 210.066406 333.789062 212.175781 C 332.921875 214.40625 332.546875 216.714844 332.703125 219.148438 C 332.574219 220.847656 332.769531 222.546875 333.246094 224.226562 Z M 337.730469 218.714844 C 338.011719 216.9375 338.113281 215.125 338.578125 213.378906 C 338.964844 211.929688 339.792969 211.683594 340.960938 212.597656 C 342.019531 213.425781 342.480469 214.605469 342.726562 215.867188 C 342.847656 216.480469 342.714844 217.140625 342.875 217.570312 C 342.875 219.5 342.351562 221.050781 340.960938 222.195312 C 339.957031 223.019531 339.089844 222.871094 338.335938 221.789062 C 337.6875 220.851562 337.546875 219.890625 337.730469 218.714844 Z M 337.730469 218.714844 " fill-opacity="1" fill-rule="nonzero"/><path fill="#97582a" d="M 81.15625 248.714844 C 78.703125 248.679688 76.949219 247.367188 75.484375 245.527344 C 74.570312 244.375 75.058594 243.109375 75.167969 241.875 C 73.070312 240.402344 70.707031 239.550781 68.261719 238.875 C 66.121094 238.28125 63.929688 237.960938 61.738281 237.835938 C 59.671875 237.714844 57.566406 237.496094 55.519531 237.96875 C 52.222656 238.734375 50.375 241.261719 48.882812 243.996094 C 47.46875 246.59375 46.386719 249.371094 47.167969 252.460938 C 47.566406 254.042969 48.253906 255.578125 48.4375 257.179688 C 49.105469 263.058594 51.953125 267.875 55.371094 272.472656 C 58.9375 277.269531 62.523438 282.050781 66.453125 286.558594 C 68.089844 288.433594 69.699219 290.355469 71.484375 292.082031 C 74.175781 294.683594 77.472656 296.4375 80.703125 298.257812 C 82.972656 299.539062 85.34375 300.582031 88.015625 300.398438 C 92.273438 300.101562 95.867188 298.242188 98.699219 295.125 C 102.007812 291.488281 103.175781 287.078125 102.691406 282.164062 C 102.523438 280.507812 101.921875 279 101.539062 277.421875 C 98.457031 275.445312 97.636719 272.367188 97.472656 268.96875 C 97.277344 268.671875 97.023438 268.394531 96.898438 268.070312 C 95.246094 263.765625 92.578125 260.179688 89.441406 256.847656 C 87.1875 254.453125 85.71875 251.429688 83.867188 248.714844 C 82.964844 248.714844 82.0625 248.726562 81.15625 248.714844 Z M 78.816406 271.15625 C 76.449219 271.152344 74.898438 269.765625 74.894531 267.644531 C 74.886719 265.753906 75.878906 264.621094 77.570312 264.589844 C 79.359375 264.558594 81.398438 266.714844 81.414062 268.660156 C 81.429688 270.046875 80.273438 271.15625 78.816406 271.15625 Z M 78.816406 271.15625 " fill-opacity="1" fill-rule="nonzero"/><path fill="#97582a" d="M 218.308594 223.238281 C 217.183594 221.878906 216.019531 220.550781 214.945312 219.152344 C 211.792969 215.0625 209.121094 210.628906 206.097656 206.441406 C 201.867188 200.585938 196.15625 197.222656 189.371094 195.367188 C 186 194.445312 182.566406 194.214844 179.097656 193.925781 C 174.339844 193.527344 169.660156 194.019531 164.957031 194.433594 C 164.886719 194.648438 164.875 194.917969 164.738281 195.070312 C 161.933594 198.203125 160.699219 202.015625 160.15625 206.078125 C 159.847656 208.417969 159.535156 210.902344 161.097656 212.921875 C 162.75 215.050781 164.878906 216.746094 167.394531 217.757812 C 172.507812 219.816406 177.738281 221.574219 182.769531 223.84375 C 185.402344 225.03125 188.117188 226.027344 190.472656 227.78125 C 193.511719 230.050781 195.523438 233.195312 197.691406 236.207031 C 199.308594 238.453125 200.855469 240.785156 203.175781 242.355469 C 207.3125 245.15625 212.550781 243.097656 214.375 237.964844 C 215.984375 233.445312 216.757812 228.640625 219.023438 224.347656 C 219.03125 223.816406 218.59375 223.578125 218.308594 223.238281 Z M 218.308594 223.238281 " fill-opacity="1" fill-rule="nonzero"/><path fill="#f8f5ec" d="M 232.832031 23.761719 C 233.578125 23.722656 234.214844 23.378906 234.34375 22.472656 C 234.070312 21.539062 233.347656 21.0625 232.472656 21 C 231.644531 20.941406 231.296875 21.609375 231.339844 22.367188 C 231.390625 23.261719 231.933594 23.808594 232.832031 23.761719 Z M 232.832031 23.761719 " fill-opacity="1" fill-rule="nonzero"/><path fill="#f8f5ec" d="M 144.246094 22.515625 C 144.425781 22.160156 144.679688 21.730469 143.941406 21.644531 C 143.367188 21.820312 142.9375 22.210938 142.5625 22.671875 C 141.382812 24.132812 140.609375 25.828125 139.949219 27.558594 C 139.34375 29.140625 139.785156 30.46875 141.128906 31.554688 C 142.007812 32.265625 142.921875 32.925781 143.808594 33.625 C 144.257812 33.980469 144.6875 34.328125 145.226562 33.804688 C 145.707031 33.339844 145.609375 32.796875 145.316406 32.304688 C 144.800781 31.453125 144.289062 30.589844 143.675781 29.8125 C 142.878906 28.804688 142.644531 27.734375 142.90625 26.496094 C 143.199219 25.117188 143.605469 23.78125 144.246094 22.515625 Z M 144.246094 22.515625 " fill-opacity="1" fill-rule="nonzero"/><path fill="#f8f5ec" d="M 199.292969 25.558594 C 198.664062 25.554688 198.027344 25.46875 197.410156 25.335938 C 192.371094 24.242188 187.835938 25.1875 183.765625 28.476562 C 181.347656 30.433594 179.15625 32.722656 176.183594 33.925781 C 175.398438 34.242188 174.703125 34.800781 173.980469 35.265625 C 173.21875 35.761719 172.613281 36.394531 172.839844 37.394531 C 173.070312 38.417969 173.886719 38.667969 174.8125 38.707031 C 177.597656 38.828125 180.292969 38.199219 183 37.699219 C 188.925781 36.597656 194.851562 36.277344 200.789062 37.5625 C 203.441406 38.140625 206.082031 38.75 208.734375 39.3125 C 212.453125 40.105469 216.175781 40.246094 219.917969 39.464844 C 221.992188 39.03125 223.820312 38.285156 224.773438 36.171875 C 224.972656 35.722656 225.308594 35.332031 225.777344 35.09375 C 227.6875 34.128906 228.296875 32.453125 228.226562 30.445312 C 228.011719 24.308594 224.828125 19.992188 219.730469 17.058594 C 213.996094 13.757812 207.574219 12.433594 201.214844 11.027344 C 198.082031 10.335938 194.90625 9.777344 191.660156 9.871094 C 189.535156 9.972656 187.410156 10.0625 185.285156 10.1875 C 179.855469 10.492188 174.449219 10.972656 169.167969 12.398438 C 166.679688 13.070312 164.1875 13.75 161.703125 14.445312 C 156.585938 15.882812 153.503906 19.671875 150.820312 23.945312 C 149.964844 25.3125 149.539062 26.738281 149.597656 28.335938 C 149.738281 32.332031 152.195312 35.796875 155.726562 37.269531 C 160.523438 39.265625 164.75 37.941406 168.457031 34.871094 C 170.371094 33.28125 172.195312 31.800781 174.59375 31.023438 C 177.445312 30.09375 179.828125 28.476562 181.628906 25.945312 C 183.6875 23.054688 186.46875 21.15625 190.109375 20.890625 C 192.984375 20.679688 195.796875 21.128906 198.542969 21.980469 C 199.152344 22.167969 199.707031 22.46875 200.210938 22.875 C 200.808594 23.359375 201.320312 23.9375 201.023438 24.738281 C 200.742188 25.484375 199.976562 25.5625 199.292969 25.558594 Z M 199.292969 25.558594 " fill-opacity="1" fill-rule="nonzero"/><path fill="#f8f5ec" d="M 148.484375 38.261719 C 147.714844 38.152344 147.046875 38.894531 147.160156 39.738281 C 147.328125 41.015625 150.117188 44.136719 151.410156 44.492188 C 152.453125 44.777344 153.1875 44.214844 153.203125 43.042969 C 153.1875 42.9375 153.171875 42.757812 153.128906 42.582031 C 152.800781 41.160156 149.894531 38.460938 148.484375 38.261719 Z M 148.484375 38.261719 " fill-opacity="1" fill-rule="nonzero"/><path fill="#f8f5ec" d="M 160.457031 44.257812 C 160.457031 45.988281 161.84375 47.324219 163.617188 47.304688 C 165.179688 47.289062 166.304688 45.953125 166.28125 44.144531 C 166.257812 42.679688 164.691406 40.882812 163.472656 40.925781 C 161.921875 40.988281 160.460938 42.601562 160.457031 44.257812 Z M 160.457031 44.257812 " fill-opacity="1" fill-rule="nonzero"/><path fill="#f8f5ec" d="M 176.171875 1.9375 C 169.933594 3.308594 163.792969 4.972656 157.75 7.117188 C 153.097656 8.765625 149.644531 11.605469 147.058594 15.6875 C 146.847656 16.027344 146.667969 16.414062 146.59375 16.804688 C 146.511719 17.21875 146.648438 17.648438 147.101562 17.8125 C 147.507812 17.957031 147.769531 17.707031 147.992188 17.378906 C 148.707031 16.328125 149.476562 15.316406 150.148438 14.242188 C 151.371094 12.289062 153.011719 10.808594 155.128906 9.972656 C 158.425781 8.667969 161.847656 7.785156 165.375 7.390625 C 168.476562 7.042969 171.605469 6.890625 174.695312 6.472656 C 183.082031 5.335938 191.457031 4.910156 199.855469 6.300781 C 203.703125 6.9375 207.550781 7.644531 211.109375 9.285156 C 215.171875 11.164062 219.128906 13.273438 223.144531 15.246094 C 225.183594 16.246094 227.273438 17.136719 229.617188 17.058594 C 230.160156 17.039062 230.769531 17.085938 231.015625 16.457031 C 231.242188 15.878906 230.902344 15.382812 230.558594 14.964844 C 229.742188 13.976562 228.792969 13.113281 227.714844 12.4375 C 221.851562 8.757812 215.742188 5.652344 208.828125 4.449219 C 204.761719 3.746094 200.65625 3.523438 196.570312 3.066406 C 191.667969 2.519531 186.789062 1.835938 181.847656 1.671875 C 179.949219 1.605469 178.039062 1.527344 176.171875 1.9375 Z M 176.171875 1.9375 " fill-opacity="1" fill-rule="nonzero"/><path fill="#f8f5ec" d="M 238.9375 28.449219 C 239.03125 29.289062 239.554688 29.859375 240.339844 30.128906 C 241.058594 30.375 241.675781 30.105469 242.1875 29.582031 C 243.179688 28.558594 243.761719 27.332031 243.683594 25.902344 C 243.613281 24.542969 243.429688 23.183594 243.222656 21.839844 C 242.902344 19.773438 241.785156 18.117188 240.339844 16.699219 C 239.40625 15.789062 238.234375 15.515625 236.941406 15.914062 C 235.785156 16.265625 235.347656 16.992188 235.601562 18.191406 C 235.882812 19.542969 236.691406 20.589844 237.539062 21.589844 C 238.734375 23.003906 239.160156 24.601562 238.921875 26.585938 C 238.925781 27.085938 238.867188 27.773438 238.9375 28.449219 Z M 238.9375 28.449219 " fill-opacity="1" fill-rule="nonzero"/><path fill="#69422f" d="M 41.753906 184.59375 C 40.625 185.003906 40.433594 185.980469 40.34375 187.101562 C 40.488281 188.417969 41.058594 189.65625 41.902344 190.722656 C 42.703125 191.730469 44.402344 191.53125 45.007812 190.34375 C 45.882812 188.625 46.394531 188.101562 44.316406 185.617188 C 43.640625 184.804688 42.894531 184.179688 41.753906 184.59375 Z M 41.753906 184.59375 " fill-opacity="1" fill-rule="nonzero"/><path fill="#69422f" d="M 20.5 198.398438 C 20.527344 200.40625 21.390625 201.921875 23.21875 202.738281 C 24.964844 203.523438 26.511719 202.828125 27.855469 201.71875 C 29.988281 199.960938 30.925781 194.765625 29.621094 192.351562 C 29.027344 191.25 28.078125 190.617188 26.851562 190.761719 C 23.378906 191.183594 20.136719 193.238281 20.5 197.683594 C 20.5 197.855469 20.496094 198.125 20.5 198.398438 Z M 25.40625 194.488281 C 25.628906 194.28125 25.902344 194.015625 26.226562 194.125 C 26.625 194.257812 26.496094 194.675781 26.457031 194.953125 C 26.300781 196.019531 26.175781 197.105469 25.589844 198.054688 C 25.359375 198.425781 25.214844 199.003906 24.652344 198.859375 C 24.144531 198.726562 24.351562 198.179688 24.304688 197.800781 C 24.28125 197.621094 24.300781 197.4375 24.300781 197.105469 C 24.117188 196.113281 24.605469 195.230469 25.40625 194.488281 Z M 25.40625 194.488281 " fill-opacity="1" fill-rule="nonzero"/><path fill="#69422f" d="M 77.570312 264.589844 C 75.882812 264.621094 74.886719 265.753906 74.894531 267.644531 C 74.898438 269.765625 76.449219 271.152344 78.816406 271.15625 C 80.273438 271.15625 81.429688 270.046875 81.414062 268.660156 C 81.398438 266.714844 79.359375 264.558594 77.570312 264.589844 Z M 77.570312 264.589844 " fill-opacity="1" fill-rule="nonzero"/><path fill="#69422f" d="M 62.90625 188.804688 C 64.277344 188.804688 65.394531 187.449219 65.394531 185.792969 C 65.394531 184.414062 64.738281 183.644531 63.53125 183.613281 C 62.144531 183.574219 60.796875 185.050781 60.792969 186.621094 C 60.789062 187.871094 61.695312 188.808594 62.90625 188.804688 Z M 62.90625 188.804688 " fill-opacity="1" fill-rule="nonzero"/><path fill="#69422f" d="M 45.359375 172.414062 C 48.589844 172.40625 50.722656 169.921875 50.675781 166.199219 C 50.632812 163.015625 49.179688 161.300781 45.855469 161.40625 C 42.222656 161.523438 39.710938 163.46875 39.875 166.441406 C 40.0625 169.777344 41.933594 172.574219 45.359375 172.414062 Z M 45.5 165.554688 C 46.0625 165.628906 46.96875 165.367188 46.800781 166.390625 C 46.660156 167.234375 46.523438 168.460938 45.4375 168.480469 C 44.21875 168.503906 44.371094 167.195312 44.214844 166.386719 C 44.011719 165.320312 44.910156 165.617188 45.5 165.554688 Z M 45.5 165.554688 " fill-opacity="1" fill-rule="nonzero"/><path fill="#69422f" d="M 372.824219 158.867188 C 372.480469 158.882812 372.136719 158.914062 371.792969 158.976562 C 371.386719 159.042969 370.996094 158.984375 370.609375 158.777344 C 365.71875 156.167969 360.46875 154.433594 355.332031 152.425781 C 352.460938 151.300781 349.898438 149.46875 346.914062 148.660156 C 342.304688 147.414062 337.851562 147.960938 333.71875 150.394531 C 331.628906 151.625 330.953125 153.628906 331.5 156.035156 C 332.253906 159.359375 333.757812 162.378906 335.464844 165.265625 C 337.71875 169.078125 339.609375 173.027344 340.964844 177.246094 C 342.066406 180.6875 343.65625 183.90625 345.617188 186.929688 C 348.28125 191.039062 350.367188 195.417969 351.378906 200.222656 C 352.753906 206.753906 355.523438 212.589844 359.605469 217.820312 C 360.695312 219.136719 361.902344 220.300781 363.296875 221.21875 C 363.929688 221.636719 364.601562 222.003906 365.316406 222.3125 C 367.515625 223.261719 369.667969 223.289062 371.75 222.414062 C 373.882812 211.097656 375 199.429688 375 187.496094 C 374.996094 177.761719 374.253906 168.203125 372.824219 158.867188 Z M 372.824219 158.867188 " fill-opacity="1" fill-rule="nonzero"/><path fill="#69422f" d="M 86.125 243.785156 C 85.507812 241.46875 83.976562 239.679688 81.554688 239.214844 C 78.964844 238.722656 76.59375 239.277344 75.171875 241.875 C 75.058594 243.109375 74.570312 244.375 75.488281 245.527344 C 76.949219 247.367188 78.703125 248.679688 81.160156 248.714844 C 82.0625 248.726562 82.964844 248.714844 83.867188 248.714844 C 86.488281 248.027344 86.789062 246.265625 86.125 243.785156 Z M 86.125 243.785156 " fill-opacity="1" fill-rule="nonzero"/><path fill="#69422f" d="M 127.277344 62.351562 C 129.644531 63.324219 132.070312 64.164062 134.484375 65.023438 C 134.898438 65.171875 135.371094 65.15625 135.5 65.175781 C 137.753906 65.175781 139.199219 64.113281 139.636719 62.359375 C 140.34375 59.539062 137.824219 56.269531 134.773438 55.84375 C 132.363281 55.511719 130.085938 55.585938 127.789062 56.574219 C 126.394531 57.175781 125.445312 57.980469 125.253906 59.453125 C 125.054688 60.953125 126.0625 61.855469 127.277344 62.351562 Z M 127.277344 62.351562 " fill-opacity="1" fill-rule="nonzero"/><path fill="#69422f" d="M 330.378906 183.386719 C 328.648438 184.75 327.511719 186.503906 327.273438 188.769531 C 326.992188 191.460938 329.164062 194.3125 331.691406 194.292969 C 332.273438 194.394531 332.9375 194.097656 333.558594 193.707031 C 335.894531 192.238281 337.324219 187.941406 336.355469 185.34375 C 335.492188 183.015625 332.238281 181.917969 330.378906 183.386719 Z M 332.898438 187.664062 C 332.5625 188.320312 332.132812 188.925781 331.742188 189.550781 C 331.636719 189.507812 331.53125 189.460938 331.429688 189.417969 C 331.515625 188.679688 331.527344 187.925781 331.875 187.234375 C 332.011719 186.960938 332.164062 186.613281 332.558594 186.761719 C 332.96875 186.914062 333.0625 187.335938 332.898438 187.664062 Z M 332.898438 187.664062 " fill-opacity="1" fill-rule="nonzero"/><path fill="#69422f" d="M 182.070312 268.425781 C 182.609375 268.441406 183.148438 268.5 183.6875 268.550781 C 187.136719 268.867188 190.582031 269.277344 194.039062 269.476562 C 196.519531 269.621094 197.566406 267.691406 196.417969 265.476562 C 195.753906 264.199219 194.824219 263.046875 194.566406 261.574219 C 192.996094 258.5625 190.195312 257.417969 187.164062 256.585938 C 186.109375 256.292969 185.0625 256.453125 184.332031 257.082031 C 181.714844 259.320312 179.683594 262.015625 178.683594 265.390625 C 178.953125 267.574219 179.828125 268.347656 182.070312 268.425781 Z M 185.328125 263.488281 C 185.40625 263.398438 185.484375 263.304688 185.566406 263.210938 C 185.5625 263.210938 185.5625 263.210938 185.558594 263.210938 C 185.558594 263.210938 185.570312 263.199219 185.570312 263.199219 L 185.558594 263.210938 C 187.359375 260.890625 187.359375 260.890625 190.441406 262.179688 C 191.441406 262.835938 191.722656 263.949219 192.28125 265.003906 C 191.742188 265.234375 191.285156 265.132812 190.824219 265.011719 C 189.144531 264.5625 187.453125 264.160156 185.710938 264.039062 C 185.621094 264.03125 185.5 264.039062 185.390625 264.027344 C 185.15625 264.011719 184.976562 263.921875 185.328125 263.488281 Z M 185.328125 263.488281 " fill-opacity="1" fill-rule="nonzero"/><path fill="#69422f" d="M 185.574219 263.203125 C 185.570312 263.203125 185.570312 263.207031 185.566406 263.210938 C 185.570312 263.207031 185.570312 263.203125 185.574219 263.203125 Z M 185.574219 263.203125 " fill-opacity="1" fill-rule="nonzero"/><path fill="#69422f" d="M 276.183594 272.390625 C 276.019531 273.742188 276.386719 274.941406 277.601562 275.710938 C 278.777344 276.453125 279.765625 275.847656 280.71875 275.175781 C 282.984375 273.582031 284.539062 271.3125 286.195312 269.167969 C 289.828125 264.460938 293.328125 259.65625 297.125 255.074219 C 301.125 250.253906 305.742188 245.980469 309.535156 240.976562 C 311.914062 237.832031 314.425781 234.78125 315.898438 231.035156 C 317.292969 227.484375 318.730469 223.949219 320.222656 220.4375 C 322.546875 214.976562 323.203125 209.386719 321.886719 203.550781 C 321.054688 199.855469 316.558594 197.511719 313.171875 199.167969 C 310.410156 200.523438 308.027344 202.363281 306.058594 204.746094 C 304.527344 206.601562 302.945312 208.414062 301.445312 210.292969 C 298.871094 213.519531 296.164062 216.65625 294.535156 220.53125 C 293.207031 223.675781 291.605469 226.683594 289.984375 229.683594 C 289.722656 230.171875 289.503906 230.671875 288.820312 230.660156 C 287.828125 230.652344 286.847656 230.730469 285.847656 230.539062 C 282.398438 229.867188 278.984375 228.949219 275.210938 228.988281 C 274.171875 229.027344 272.894531 228.90625 271.664062 229.308594 C 269.359375 230.058594 267.660156 231.472656 267.175781 233.945312 C 266.6875 236.4375 267.949219 238.121094 269.957031 239.378906 C 271.152344 240.128906 272.453125 240.660156 273.730469 241.234375 C 276.53125 242.488281 278.253906 244.589844 278.917969 247.621094 C 279.367188 249.671875 279.613281 251.753906 279.621094 253.828125 C 279.632812 257.023438 278.507812 260.0625 277.878906 263.164062 C 277.257812 266.230469 276.5625 269.28125 276.183594 272.390625 Z M 276.183594 272.390625 " fill-opacity="1" fill-rule="nonzero"/><path fill="#69422f" d="M 130.5625 285.335938 C 129.851562 285.425781 129.109375 285.292969 128.429688 285.617188 C 126.535156 285.714844 124.636719 285.847656 122.738281 285.898438 C 120.375 285.96875 119.691406 287 120.59375 289.214844 C 121.777344 292.117188 123.492188 294.683594 125.6875 296.886719 C 130.398438 301.625 136.390625 304.097656 142.5625 306.121094 C 148.675781 308.121094 155.09375 308.664062 161.402344 309.714844 C 165.941406 310.46875 170.507812 311.152344 174.75 313.070312 C 178.175781 314.617188 181.441406 316.488281 184.757812 318.265625 C 187.128906 319.542969 189.242188 321.160156 191.238281 322.957031 C 194.144531 325.566406 195.601562 328.996094 196.765625 332.644531 C 198.074219 336.757812 200.691406 338 204.792969 336.589844 C 208.476562 335.328125 212.019531 333.699219 215.503906 331.976562 C 221.511719 329 227.445312 325.878906 233.445312 322.898438 C 243.382812 317.96875 253.605469 313.640625 263.265625 308.140625 C 263.933594 307.757812 264.378906 307.339844 264.660156 306.601562 C 266.355469 302.136719 268.277344 297.777344 270.363281 293.484375 C 270.722656 292.746094 270.734375 292.042969 270.539062 291.246094 C 270.050781 289.253906 269.34375 287.339844 268.746094 285.386719 C 266.742188 278.847656 262.71875 274.117188 256.496094 271.25 C 253.945312 270.074219 251.566406 268.5625 249.207031 267.03125 C 247.398438 266.394531 245.773438 266.773438 244.488281 268.152344 C 240.546875 272.386719 235.578125 275.109375 230.570312 277.75 C 227.152344 279.550781 224.015625 281.78125 220.773438 283.851562 C 215.910156 286.964844 210.683594 289.339844 205.410156 291.621094 C 205.371094 291.640625 205.320312 291.640625 205.28125 291.664062 C 202.964844 293.144531 200.910156 292.910156 198.429688 291.535156 C 194.578125 289.402344 190.152344 288.777344 185.820312 288.117188 C 181.054688 287.394531 176.289062 286.726562 171.558594 285.78125 C 168.558594 285.179688 165.492188 284.933594 162.457031 284.527344 C 157.207031 284.253906 151.960938 283.980469 146.710938 283.707031 C 141.1875 282.796875 135.933594 284.664062 130.5625 285.335938 Z M 130.5625 285.335938 " fill-opacity="1" fill-rule="nonzero"/><path fill="#69422f" d="M 101.542969 277.421875 C 101.722656 277.445312 101.90625 277.449219 102.078125 277.492188 C 105.425781 278.347656 107.609375 276.152344 106.71875 272.796875 C 106.132812 270.589844 104.710938 268.945312 102.9375 267.625 C 100.769531 266.003906 98.738281 266.542969 97.476562 268.96875 C 97.640625 272.367188 98.460938 275.445312 101.542969 277.421875 Z M 101.542969 277.421875 " fill-opacity="1" fill-rule="nonzero"/><path fill="#69422f" d="M 315.058594 85.664062 C 316.101562 85.761719 316.757812 85.15625 317.257812 84.351562 C 317.828125 83.441406 317.957031 82.402344 318.011719 81.238281 C 317.933594 80.355469 317.832031 79.367188 317.5 78.417969 C 317.148438 77.410156 316.394531 76.675781 315.40625 76.785156 C 314.386719 76.902344 313.171875 77.203125 312.847656 78.472656 C 312.371094 80.347656 312.3125 82.253906 313.011719 84.089844 C 313.359375 84.988281 314.058594 85.566406 315.058594 85.664062 Z M 315.058594 85.664062 " fill-opacity="1" fill-rule="nonzero"/><path fill="#69422f" d="M 311.296875 69.808594 C 310.003906 69.773438 308.566406 70.761719 308.527344 71.710938 C 308.460938 73.4375 309.652344 75.019531 311.011719 75.019531 C 312.390625 75.019531 313.382812 73.878906 313.386719 72.292969 C 313.390625 70.8125 312.582031 69.847656 311.296875 69.808594 Z M 311.296875 69.808594 " fill-opacity="1" fill-rule="nonzero"/><path fill="#69422f" d="M 297.90625 64.214844 C 297.992188 65.464844 298.558594 66.734375 299.964844 67.394531 C 301.613281 68.160156 303.121094 67.667969 304.503906 66.601562 C 306.34375 65.179688 306.726562 63.09375 307.203125 60.988281 C 307.617188 59.164062 306.835938 57.761719 305.023438 57.535156 C 302.015625 57.15625 297.886719 60.878906 297.90625 64.214844 Z M 301.730469 64.09375 C 301.753906 62.859375 302.449219 62.3125 303.316406 61.894531 C 303.335938 62.957031 302.769531 63.597656 301.730469 64.09375 Z M 303.339844 61.855469 C 303.347656 61.832031 303.359375 61.808594 303.375 61.792969 C 303.386719 61.78125 303.421875 61.785156 303.445312 61.78125 C 303.410156 61.808594 303.378906 61.832031 303.339844 61.855469 Z M 303.339844 61.855469 " fill-opacity="1" fill-rule="nonzero"/><path fill="#69422f" d="M 154.253906 134.351562 C 156.527344 132.898438 157.203125 130.847656 157.0625 128.292969 C 156.9375 126.042969 155.492188 124.40625 153.257812 124.285156 C 152.085938 124.21875 150.910156 124.289062 149.730469 124.296875 L 149.707031 124.277344 C 149.609375 124.363281 149.511719 124.449219 149.414062 124.535156 C 148.316406 125.363281 147.351562 126.292969 146.976562 127.691406 C 146.097656 130.964844 147.289062 133.496094 150.507812 135.167969 C 151.839844 135.273438 153.050781 135.121094 154.253906 134.351562 Z M 154.253906 134.351562 " fill-opacity="1" fill-rule="nonzero"/><path fill="#69422f" d="M 214.679688 246.65625 C 214.660156 248.410156 216.347656 250.066406 218.089844 250.015625 C 219.671875 249.964844 220.917969 248.546875 220.925781 246.792969 C 220.933594 244.964844 219.566406 243.382812 217.964844 243.359375 C 216.21875 243.335938 214.695312 244.867188 214.679688 246.65625 Z M 214.679688 246.65625 " fill-opacity="1" fill-rule="nonzero"/><path fill="#69422f" d="M 300.046875 286.679688 C 300.136719 289.625 302.414062 292.027344 305.300781 291.914062 C 308.746094 291.78125 311.398438 289.933594 313.339844 287.261719 C 315.890625 283.75 316.898438 279.710938 316.671875 275.328125 C 316.503906 272.09375 314.761719 269.382812 311.925781 268.222656 C 310.875 267.792969 309.796875 267.921875 308.726562 267.828125 C 307.332031 267.863281 306.019531 268.242188 304.9375 269.109375 C 301.253906 272.078125 299.9375 276.109375 300.175781 280.6875 C 300.234375 281.773438 300.042969 282.738281 299.832031 283.742188 C 300.320312 284.691406 300.015625 285.703125 300.046875 286.679688 Z M 300.046875 286.679688 " fill-opacity="1" fill-rule="nonzero"/><path fill="#69422f" d="M 75.355469 52.101562 C 72.6875 56.0625 72.574219 59.269531 75.808594 62.671875 C 77.355469 64.296875 79.476562 64.058594 80.828125 62.261719 C 81.714844 61.085938 81.679688 59.710938 81.847656 58.179688 C 81.6875 55.789062 81.089844 53.460938 78.570312 52.074219 C 76.742188 51.066406 76.140625 50.929688 75.355469 52.101562 Z M 79.5 59.484375 C 79.339844 60.199219 79.140625 61.011719 78.367188 61.207031 C 77.574219 61.410156 77.265625 60.585938 76.878906 60.078125 C 75.65625 58.480469 75.878906 56.800781 76.644531 55.085938 C 76.898438 54.515625 77.210938 54.523438 77.699219 54.746094 C 79.441406 55.53125 79.296875 57.183594 79.507812 58.671875 C 79.507812 58.945312 79.554688 59.226562 79.5 59.484375 Z M 79.5 59.484375 " fill-opacity="1" fill-rule="nonzero"/><path fill="#69422f" d="M 126.804688 93.269531 C 126.789062 94.988281 128.097656 96.660156 129.503906 96.617188 C 130.667969 96.582031 131.175781 95.898438 131.191406 94.765625 C 131.222656 92.933594 130.152344 91.707031 128.503906 91.695312 C 127.386719 91.617188 126.816406 92.109375 126.804688 93.269531 Z M 126.804688 93.269531 " fill-opacity="1" fill-rule="nonzero"/><path fill="#69422f" d="M 113.476562 76.109375 C 112.425781 76.050781 111.390625 76.191406 110.382812 76.429688 C 109.207031 76.707031 108.269531 77.363281 108.101562 78.644531 C 107.769531 81.140625 108.464844 83.382812 110.648438 84.679688 C 112.851562 85.988281 115.234375 87.03125 117.625 87.957031 C 119.652344 88.742188 121.6875 87.28125 121.941406 85.097656 C 122.1875 82.988281 121.703125 81.019531 120.558594 79.257812 C 118.886719 76.695312 116.289062 76.128906 113.476562 76.109375 Z M 118.546875 83.679688 C 116.601562 82.640625 114.480469 82.253906 112.371094 81.828125 C 111.949219 81.742188 111.5 81.515625 111.1875 81.222656 C 110.617188 80.695312 110.101562 79.980469 110.34375 79.199219 C 110.585938 78.402344 111.449219 78.601562 112.105469 78.558594 C 115.011719 78.359375 116.9375 79.9375 118.496094 82.15625 C 118.8125 82.601562 118.773438 83.085938 118.546875 83.679688 Z M 118.546875 83.679688 " fill-opacity="1" fill-rule="nonzero"/><path fill="#69422f" d="M 67.960938 50.410156 C 68.945312 47.203125 69.953125 44 70.789062 40.746094 C 63.902344 46.230469 57.414062 52.1875 51.363281 58.570312 C 49.664062 62.988281 48.582031 67.574219 48.074219 72.277344 C 47.527344 77.300781 48.820312 80.875 54.453125 82.128906 C 56.082031 82.492188 57.773438 82.804688 59.148438 83.8125 C 62.472656 86.246094 66.207031 87.710938 70.183594 88.5 C 73.125 89.082031 75.105469 90.613281 76.464844 93.304688 C 77.839844 96.027344 79.9375 98.175781 82.632812 99.679688 C 84.863281 100.929688 86.800781 102.570312 88.65625 104.316406 C 91.578125 107.066406 94.839844 109.15625 98.867188 109.925781 C 103.054688 110.730469 107.179688 111.183594 111.226562 109.304688 C 113.210938 108.382812 113.625 106.457031 112.113281 104.914062 C 109.421875 102.175781 106.402344 99.871094 103.101562 97.929688 C 100.289062 96.28125 97.210938 95.113281 94.652344 93.015625 C 92.644531 91.375 90.4375 90.027344 88.160156 88.792969 C 85.804688 87.515625 83.769531 85.902344 82.507812 83.457031 C 81.507812 81.511719 80.789062 79.445312 80.066406 77.390625 C 78.945312 74.21875 76.921875 72.160156 73.441406 71.742188 C 70.21875 71.351562 67.015625 70.8125 63.796875 70.390625 C 63.074219 70.296875 62.957031 70.140625 63.082031 69.375 C 64.148438 62.90625 66.035156 56.65625 67.960938 50.410156 Z M 67.960938 50.410156 " fill-opacity="1" fill-rule="nonzero"/><path fill="#69422f" d="M 96.335938 351.382812 C 95.371094 348.949219 94.40625 346.519531 93.402344 344.105469 C 91.386719 339.269531 91.378906 334.191406 91.46875 329.082031 C 91.519531 326.183594 90.464844 323.6875 88.453125 321.574219 C 85.542969 318.515625 82.011719 316.308594 78.523438 314.019531 C 76.15625 312.46875 73.355469 311.636719 71.40625 309.363281 C 69.015625 306.574219 66.382812 303.988281 63.953125 301.234375 C 61.210938 298.125 58.75 294.808594 57.476562 290.773438 C 56.820312 288.699219 56.242188 286.601562 55.601562 284.519531 C 54.835938 282.019531 53.105469 280.480469 50.714844 279.59375 C 47.738281 278.488281 44.671875 277.628906 41.554688 277.222656 C 34.757812 276.328125 29.597656 273.023438 25.621094 267.472656 C 22.773438 263.492188 20.128906 259.332031 16.691406 255.804688 C 14.992188 254.058594 13.214844 252.410156 11.101562 251.191406 C 26.546875 293.964844 57.105469 329.511719 96.335938 351.382812 Z M 96.335938 351.382812 " fill-opacity="1" fill-rule="nonzero"/><path fill="#69422f" d="M 160.488281 70.222656 C 158.21875 71.546875 156.273438 73.316406 154.09375 74.753906 C 153.449219 75.582031 152.644531 76.242188 151.859375 76.929688 C 149.710938 78.800781 147.074219 80.023438 145.101562 82.140625 C 143.296875 84.074219 143.265625 86.085938 145.0625 88.039062 C 146.46875 89.570312 148.253906 90.328125 150.199219 90.894531 C 153.914062 91.980469 157.695312 92.921875 161.152344 94.710938 C 164.464844 96.425781 167.382812 98.679688 169.570312 101.785156 C 172.832031 105.730469 172.503906 108.445312 170.394531 113.261719 C 169.574219 115.140625 168.585938 116.9375 168.285156 118.972656 C 167.96875 121.105469 168.859375 123.078125 169.417969 125.074219 C 171.316406 131.855469 172.511719 138.757812 173.382812 145.738281 C 173.742188 148.589844 173.910156 151.429688 173.902344 154.292969 C 173.886719 158.929688 172.957031 163.285156 170.375 167.222656 C 168.535156 170.027344 166.972656 173.011719 164.925781 175.679688 C 163.15625 178.078125 161.707031 180.75 159.402344 182.699219 C 155.675781 185.851562 151.796875 188.804688 147.789062 191.589844 C 145.289062 193.800781 143.9375 196.660156 142.761719 199.621094 C 142.367188 200.609375 141.996094 201.609375 141.605469 202.601562 C 140.042969 206.585938 137.492188 209.9375 134.792969 213.175781 C 132.265625 216.207031 130.335938 219.667969 127.839844 222.71875 C 127.253906 223.433594 127.445312 224.484375 126.855469 225.210938 C 126.757812 226.019531 126.625 226.824219 126.578125 227.632812 C 126.480469 229.1875 127.183594 230.265625 128.492188 231.105469 C 131.59375 233.09375 135.148438 233.507812 138.621094 234.203125 C 141.171875 234.714844 143.746094 235.121094 146.300781 235.613281 C 149.546875 236.238281 151.492188 238.378906 152.632812 241.34375 C 153.921875 244.6875 154.457031 248.242188 155.371094 251.691406 C 155.660156 252.777344 156.261719 253.789062 156.214844 254.964844 C 156.394531 255.375 156.597656 255.773438 156.746094 256.199219 C 157.421875 258.089844 158.242188 259.917969 159.261719 261.640625 C 160.484375 263.710938 162.453125 263.734375 163.792969 261.765625 C 164.152344 261.242188 164.4375 260.660156 164.832031 260.171875 C 168.890625 255.117188 173.71875 250.84375 178.515625 246.539062 C 180.332031 244.910156 182.402344 243.5625 183.882812 241.554688 C 185.628906 239.195312 185.414062 236.875 183.140625 235.269531 C 182.144531 234.570312 181.066406 233.9375 179.9375 233.488281 C 175.429688 231.703125 171.796875 228.582031 168.175781 225.53125 C 165.492188 223.269531 162.71875 221.507812 159.214844 221.085938 C 155.773438 220.671875 152.515625 219.753906 149.542969 217.878906 C 148.6875 217.339844 148.242188 216.746094 148.300781 215.683594 C 148.460938 212.746094 149.242188 209.964844 150.199219 207.214844 C 151.464844 203.566406 153.320312 200.140625 154.25 196.371094 C 154.390625 195.808594 154.636719 195.6875 155.164062 195.628906 C 158.433594 195.253906 161.699219 194.835938 164.964844 194.429688 C 169.667969 194.015625 174.34375 193.519531 179.105469 193.917969 C 182.574219 194.207031 186.007812 194.4375 189.378906 195.359375 C 196.160156 197.21875 201.875 200.582031 206.101562 206.433594 C 209.128906 210.621094 211.800781 215.054688 214.953125 219.148438 C 216.027344 220.542969 217.1875 221.875 218.316406 223.230469 C 218.597656 223.570312 219.039062 223.808594 219.03125 224.339844 C 220.152344 224.707031 220.800781 225.699219 221.667969 226.394531 C 224.0625 228.304688 226.558594 229.820312 229.792969 229.566406 C 232.488281 229.351562 235.074219 228.667969 237.472656 227.5 C 244.792969 223.933594 252.421875 221.03125 259.574219 217.101562 C 260.597656 216.542969 261.566406 216.433594 262.652344 216.949219 C 263.421875 217.316406 264.257812 217.511719 265.140625 217.550781 C 268.476562 217.699219 271.785156 218.113281 275.0625 218.773438 C 278.5 219.472656 281.894531 220.398438 285.480469 220.011719 C 289.113281 219.617188 291.773438 217.941406 293.300781 214.558594 C 295.3125 210.105469 296.222656 205.402344 296.25 200.542969 C 296.277344 196.089844 296.445312 191.632812 295.808594 187.1875 C 295.074219 182.113281 293.945312 177.113281 292.980469 172.085938 C 291.636719 165.09375 290.332031 158.09375 288.074219 151.3125 C 287.589844 149.859375 287.507812 148.332031 287.710938 146.746094 C 287.925781 145.085938 288.203125 143.429688 288.378906 141.761719 C 289.902344 135.796875 290.65625 129.75 290.277344 123.582031 C 290.0625 120.113281 288.730469 117.097656 286.613281 114.394531 C 285.417969 112.871094 285.425781 112.867188 287.089844 112.027344 C 290.453125 110.332031 293.925781 108.96875 297.585938 108.058594 C 300.789062 107.265625 303.53125 105.699219 305.449219 102.898438 C 306.644531 100.398438 307.882812 97.917969 309.019531 95.390625 C 310.019531 93.167969 310.230469 90.855469 309.480469 88.480469 C 308.183594 84.371094 305.453125 81.71875 301.492188 80.179688 C 296.847656 78.375 292.039062 77.113281 287.238281 75.851562 C 277.886719 73.394531 268.242188 72.585938 258.75 70.910156 C 255.824219 70.394531 253 69.777344 250.378906 68.097656 C 244.339844 64.230469 237.691406 62.261719 230.460938 62.425781 C 224.78125 62.550781 219.152344 63.378906 213.851562 65.230469 C 205.511719 68.140625 196.894531 68.585938 188.269531 69.246094 C 185.476562 69.460938 182.664062 69.363281 179.875 68.960938 C 176.828125 68.683594 173.769531 68.507812 170.742188 68.113281 C 167.050781 67.640625 163.679688 68.363281 160.488281 70.222656 Z M 160.488281 70.222656 " fill-opacity="1" fill-rule="nonzero"/><path fill="#69422f" d="M 109.164062 313.5625 C 112.714844 317.753906 116.035156 322.15625 119.78125 326.160156 C 126.695312 333.554688 135.167969 337.644531 145.445312 337.394531 C 148.808594 337.410156 152.136719 337.039062 155.476562 336.847656 C 159.328125 336.628906 163.175781 336.949219 167.011719 337.152344 C 169.636719 337.289062 172.351562 337.609375 174.777344 338.792969 C 175.992188 339.382812 177.097656 339.589844 178.414062 339.28125 C 180.5 338.789062 181.382812 336.949219 180.191406 335.148438 C 179.46875 334.054688 178.585938 333.058594 177.722656 332.066406 C 174.273438 328.113281 169.734375 325.847656 164.996094 323.960938 C 160.988281 322.359375 157.03125 320.722656 153.636719 317.953125 C 151.378906 316.117188 148.851562 315.226562 145.847656 315.378906 C 143.414062 315.503906 140.988281 314.863281 138.761719 313.785156 C 130.972656 310.023438 123.144531 306.347656 115.839844 301.644531 C 112.238281 299.324219 108.210938 298.125 103.921875 297.996094 C 102.304688 297.945312 100.738281 298.457031 100.074219 300.046875 C 99.449219 301.53125 99.964844 302.953125 101.058594 304.191406 C 103.796875 307.28125 106.496094 310.40625 109.164062 313.5625 Z M 109.164062 313.5625 " fill-opacity="1" fill-rule="nonzero"/><path fill="#69422f" d="M 355.214844 248.035156 C 352.183594 250.511719 349.714844 253.375 348.042969 256.929688 C 347.949219 257.128906 347.792969 257.296875 347.664062 257.476562 C 347.375 257.992188 347.117188 258.527344 346.785156 259.011719 C 343.71875 263.511719 340.21875 267.710938 337.589844 272.511719 C 336.535156 273.984375 335.542969 275.5 334.417969 276.917969 C 329.761719 282.789062 326.480469 289.3125 324.722656 296.648438 C 323.332031 302.457031 322 308.28125 321.0625 314.175781 C 320.753906 316.113281 320.394531 318.050781 320.160156 320 C 342.085938 298.046875 358.597656 270.683594 367.519531 240.089844 C 366.960938 240.5 366.398438 240.902344 365.804688 241.257812 C 362.210938 243.410156 358.496094 245.355469 355.214844 248.035156 Z M 355.214844 248.035156 " fill-opacity="1" fill-rule="nonzero"/><path fill="#69422f" d="M 295.769531 315.761719 C 295.421875 315.683594 295.085938 315.664062 294.75 315.472656 C 291.5625 313.617188 289.351562 316.363281 289.480469 319.304688 C 289.738281 320.925781 290.585938 322.640625 292.582031 323.695312 C 294.347656 324.632812 295.921875 324.199219 297.386719 323.164062 C 298.769531 322.1875 299.535156 320.753906 299.171875 319.039062 C 298.796875 317.25 297.554688 316.15625 295.769531 315.761719 Z M 295.769531 315.761719 " fill-opacity="1" fill-rule="nonzero"/><path fill="#69422f" d="M 303.152344 300.417969 C 303.105469 300.414062 303.0625 300.417969 303.015625 300.414062 C 301.121094 300.304688 300.070312 301.613281 300.058594 304.179688 C 299.988281 304.898438 300.148438 305.644531 300.792969 306.179688 C 301.5625 306.824219 302.425781 306.914062 303.3125 306.433594 C 304.386719 305.851562 305.296875 303.433594 304.894531 302.070312 C 304.640625 301.226562 304.1875 300.480469 303.152344 300.417969 Z M 303.152344 300.417969 " fill-opacity="1" fill-rule="nonzero"/><path fill="#69422f" d="M 326.453125 107.183594 C 326.378906 107.890625 326.308594 108.597656 326.246094 109.304688 C 326.03125 111.632812 325.984375 114.003906 326.425781 116.339844 C 327.085938 120.105469 327.414062 123.898438 327.273438 127.726562 C 327.25 128.457031 327.609375 129.089844 328.308594 129.351562 C 329.097656 129.648438 329.84375 129.429688 330.414062 128.804688 C 330.746094 128.4375 331.027344 128.011719 331.285156 127.589844 C 333.53125 123.890625 335.472656 120.023438 337.238281 116.082031 C 338.230469 113.878906 339.59375 111.761719 339.519531 109.164062 C 339.453125 106.960938 338.898438 104.832031 338.269531 102.777344 C 337.042969 98.78125 337.234375 94.976562 338.539062 91.03125 C 339.664062 87.628906 341.03125 84.269531 341.65625 80.734375 C 335.414062 71.742188 328.410156 63.324219 320.730469 55.574219 C 319.847656 57.1875 319.152344 58.894531 318.652344 60.695312 C 318.445312 61.4375 318.484375 62.222656 318.695312 62.988281 C 319.210938 64.839844 319.855469 66.683594 320.984375 68.203125 C 323.128906 71.082031 323.53125 74.441406 323.980469 77.804688 C 324.476562 81.53125 324.761719 85.277344 325.972656 88.890625 C 326.949219 91.8125 327.683594 94.828125 326.960938 97.96875 C 327.089844 101.058594 326.765625 104.121094 326.453125 107.183594 Z M 326.453125 107.183594 " fill-opacity="1" fill-rule="nonzero"/><path fill="#c36600" d="M 185.824219 288.121094 C 190.152344 288.78125 194.578125 289.40625 198.429688 291.539062 C 200.914062 292.917969 202.964844 293.152344 205.285156 291.667969 C 205.320312 291.644531 205.371094 291.644531 205.414062 291.625 C 210.6875 289.34375 215.910156 286.972656 220.777344 283.859375 C 224.015625 281.785156 227.15625 279.554688 230.570312 277.753906 C 235.582031 275.109375 240.550781 272.390625 244.492188 268.15625 C 245.777344 266.777344 247.398438 266.398438 249.210938 267.035156 C 249.289062 265.082031 249.105469 263.132812 248.738281 261.230469 C 247.871094 256.71875 245.453125 252.910156 243.011719 249.148438 C 240.292969 244.957031 236.148438 244.199219 231.886719 246.824219 C 228.234375 249.074219 224.75 251.597656 220.960938 253.632812 C 215.914062 256.34375 210.625 258.355469 205.007812 259.5 C 201.53125 260.210938 198.074219 261.015625 194.566406 261.574219 C 194.824219 263.046875 195.753906 264.203125 196.417969 265.480469 C 197.566406 267.691406 196.519531 269.621094 194.039062 269.476562 C 190.582031 269.277344 187.136719 268.871094 183.6875 268.554688 C 183.148438 268.503906 182.609375 268.441406 182.070312 268.425781 C 179.824219 268.351562 178.953125 267.574219 178.683594 265.394531 C 173.550781 267.070312 168.65625 269.253906 164.332031 272.554688 C 162.023438 274.320312 161.105469 276.730469 161.296875 279.675781 C 161.40625 281.390625 162.144531 282.898438 162.457031 284.53125 C 165.492188 284.9375 168.558594 285.183594 171.558594 285.785156 C 176.289062 286.734375 181.058594 287.398438 185.824219 288.121094 Z M 185.824219 288.121094 " fill-opacity="1" fill-rule="nonzero"/><path fill="#c36600" d="M 365.3125 222.316406 C 364.597656 222.007812 363.925781 221.640625 363.292969 221.222656 C 361.898438 220.300781 360.691406 219.136719 359.605469 217.824219 C 358.371094 220.402344 357.0625 222.941406 355.917969 225.558594 C 353.367188 231.367188 350.027344 236.800781 347.890625 242.800781 C 346.78125 245.921875 345.980469 249.0625 346.488281 252.480469 C 346.742188 254.203125 347.433594 255.78125 347.664062 257.480469 C 347.792969 257.296875 347.953125 257.128906 348.042969 256.929688 C 349.714844 253.375 352.1875 250.515625 355.214844 248.039062 C 358.496094 245.359375 362.210938 243.414062 365.804688 241.261719 C 366.398438 240.90625 366.960938 240.5 367.519531 240.09375 C 369.203125 234.3125 370.621094 228.417969 371.75 222.417969 C 369.664062 223.292969 367.511719 223.265625 365.3125 222.316406 Z M 365.3125 222.316406 " fill-opacity="1" fill-rule="nonzero"/><path fill="#c36600" d="M 84.003906 41.4375 C 83.386719 45.382812 83.828125 49.175781 86.058594 52.640625 C 87.375 54.6875 89.089844 56.359375 90.800781 58.046875 C 93.796875 61.003906 97.363281 62.976562 101.402344 64.078125 C 104.269531 64.859375 107.152344 65.585938 110.039062 66.304688 C 114.582031 67.4375 119.050781 68.859375 123.636719 69.835938 C 129.839844 71.152344 136.070312 72.289062 142.324219 73.308594 C 146.226562 73.945312 150.125 74.664062 154.09375 74.757812 C 156.273438 73.316406 158.21875 71.546875 160.488281 70.226562 C 163.683594 68.363281 167.050781 67.644531 170.738281 68.121094 C 173.765625 68.511719 176.828125 68.695312 179.871094 68.964844 C 179.964844 68.433594 180.054688 67.898438 180.144531 67.367188 C 180.507812 65.242188 180.289062 64.855469 178.367188 63.851562 C 176.472656 62.863281 174.46875 62.167969 172.503906 61.367188 C 170.253906 60.449219 167.738281 59.511719 167.089844 57.007812 C 166.4375 54.472656 164.707031 54.308594 162.828125 53.957031 C 162.519531 53.898438 162.203125 53.871094 161.898438 53.804688 C 155.832031 52.441406 149.785156 50.992188 143.835938 49.191406 C 138.925781 47.707031 133.894531 46.476562 129.804688 43.023438 C 126.734375 40.433594 125.125 37.117188 124.996094 33.207031 C 124.902344 30.390625 126.1875 27.851562 127.597656 25.433594 C 130.683594 20.136719 135.121094 16.164062 140.117188 12.832031 C 145.410156 9.304688 150.835938 5.984375 156.222656 2.601562 C 132.070312 6.652344 109.484375 15.328125 89.40625 27.679688 C 86.761719 31.902344 84.785156 36.421875 84.003906 41.4375 Z M 125.25 59.453125 C 125.441406 57.984375 126.394531 57.175781 127.789062 56.574219 C 130.082031 55.585938 132.359375 55.511719 134.773438 55.84375 C 137.824219 56.269531 140.339844 59.539062 139.632812 62.359375 C 139.195312 64.113281 137.75 65.175781 135.5 65.175781 C 135.367188 65.15625 134.894531 65.171875 134.480469 65.023438 C 132.066406 64.164062 129.644531 63.324219 127.273438 62.351562 C 126.0625 61.855469 125.054688 60.953125 125.25 59.453125 Z M 125.25 59.453125 " fill-opacity="1" fill-rule="nonzero"/><path fill="#c36600" d="M 45.4375 168.480469 C 46.519531 168.460938 46.660156 167.234375 46.800781 166.390625 C 46.96875 165.367188 46.0625 165.628906 45.5 165.554688 C 44.910156 165.617188 44.011719 165.320312 44.214844 166.386719 C 44.371094 167.195312 44.21875 168.503906 45.4375 168.480469 Z M 45.4375 168.480469 " fill-opacity="1" fill-rule="nonzero"/><path fill="#c36600" d="M 24.304688 197.800781 C 24.351562 198.183594 24.144531 198.730469 24.652344 198.859375 C 25.214844 199.003906 25.359375 198.425781 25.589844 198.058594 C 26.175781 197.109375 26.300781 196.023438 26.457031 194.953125 C 26.496094 194.679688 26.625 194.261719 26.226562 194.125 C 25.902344 194.015625 25.628906 194.28125 25.40625 194.492188 C 24.605469 195.234375 24.117188 196.113281 24.300781 197.109375 C 24.300781 197.4375 24.285156 197.625 24.304688 197.800781 Z M 24.304688 197.800781 " fill-opacity="1" fill-rule="nonzero"/><path fill="#c36600" d="M 2.367188 217.355469 C 3.792969 218.1875 5.019531 219.304688 6.355469 220.261719 C 10.042969 222.898438 13.605469 225.695312 16.625 229.109375 C 19.070312 231.863281 21.671875 234.441406 24.777344 236.421875 C 28.726562 238.933594 32.996094 240.816406 37.429688 242.277344 C 39.386719 242.917969 41.433594 243.476562 43.53125 243.128906 C 46.773438 242.585938 48.886719 240.535156 50.453125 237.746094 C 52.363281 234.34375 54.328125 230.972656 56.332031 227.628906 C 58.921875 223.308594 61.671875 219.089844 64.164062 214.722656 C 67.796875 208.359375 72.335938 202.914062 78.507812 198.859375 C 82.945312 195.9375 86.925781 192.433594 89.8125 187.882812 C 91.890625 184.605469 94.589844 182.046875 97.734375 179.828125 C 99.828125 178.351562 101.742188 176.597656 103.632812 174.835938 C 109.265625 169.585938 113.542969 163.191406 118.289062 157.203125 C 123.886719 150.148438 128.503906 142.441406 132.320312 134.261719 C 133.148438 132.496094 133.886719 130.683594 134.339844 128.78125 C 135.121094 125.511719 133.261719 123.230469 129.953125 123.136719 C 128.179688 123.085938 126.441406 123.339844 124.6875 123.457031 C 122.351562 123.613281 120.011719 123.785156 117.691406 124.058594 C 113.484375 124.558594 109.269531 124.914062 105.042969 125.046875 C 98.449219 125.257812 91.871094 124.886719 85.296875 124.289062 C 80.722656 123.875 76.101562 124.050781 71.535156 123.425781 C 68.039062 122.949219 64.761719 121.824219 61.984375 119.582031 C 59.160156 117.300781 56.695312 114.636719 54.296875 111.902344 C 50.679688 107.78125 47.332031 103.46875 44.339844 98.859375 C 41.773438 94.902344 40.152344 90.679688 39.761719 85.933594 C 39.59375 83.921875 39.210938 81.882812 38.417969 79.988281 C 37.898438 78.734375 37.351562 77.453125 36.078125 76.898438 C 18.722656 100.625 6.800781 128.578125 2.164062 158.933594 C 1.453125 163.878906 0.960938 168.84375 0.5625 173.832031 C 0.175781 178.722656 0.0351562 183.617188 0.0078125 188.515625 C 0.0585938 198.324219 0.863281 207.957031 2.367188 217.355469 Z M 63.53125 183.613281 C 64.738281 183.644531 65.394531 184.414062 65.394531 185.792969 C 65.394531 187.449219 64.277344 188.804688 62.90625 188.804688 C 61.695312 188.808594 60.789062 187.871094 60.792969 186.621094 C 60.800781 185.050781 62.148438 183.574219 63.53125 183.613281 Z M 45.007812 190.34375 C 44.402344 191.53125 42.703125 191.730469 41.90625 190.722656 C 41.0625 189.660156 40.488281 188.417969 40.347656 187.101562 C 40.433594 185.980469 40.628906 185.003906 41.753906 184.59375 C 42.898438 184.179688 43.644531 184.804688 44.320312 185.613281 C 46.398438 188.101562 45.882812 188.621094 45.007812 190.34375 Z M 45.855469 161.40625 C 49.179688 161.300781 50.632812 163.015625 50.675781 166.199219 C 50.722656 169.921875 48.589844 172.40625 45.359375 172.414062 C 41.933594 172.574219 40.066406 169.777344 39.878906 166.441406 C 39.710938 163.46875 42.222656 161.523438 45.855469 161.40625 Z M 26.851562 190.761719 C 28.078125 190.617188 29.027344 191.25 29.621094 192.351562 C 30.925781 194.765625 29.984375 199.960938 27.855469 201.71875 C 26.511719 202.828125 24.964844 203.519531 23.21875 202.738281 C 21.394531 201.921875 20.527344 200.402344 20.5 198.398438 C 20.496094 198.125 20.5 197.855469 20.5 197.6875 C 20.136719 193.238281 23.378906 191.183594 26.851562 190.761719 Z M 26.851562 190.761719 " fill-opacity="1" fill-rule="nonzero"/><path fill="#c36600" d="M 299.628906 331.855469 C 298.832031 331.527344 297.957031 331.265625 297.023438 331.066406 C 292.5 330.089844 288.414062 331.410156 284.601562 333.6875 C 279.476562 336.753906 274.378906 339.875 269.367188 343.125 C 266.570312 344.941406 263.886719 346.964844 261.300781 349.078125 C 257.707031 352.015625 253.808594 354.128906 249.253906 355.210938 C 244.519531 356.335938 239.953125 358.136719 235.214844 359.304688 C 233.859375 359.640625 232.496094 359.933594 231.132812 360.234375 C 230.84375 360.296875 230.453125 360.492188 230.316406 360.074219 C 230.199219 359.71875 230.5625 359.519531 230.8125 359.34375 C 231.855469 358.609375 232.972656 358.015625 234.171875 357.582031 C 234.992188 357.285156 235.742188 356.851562 236.414062 356.316406 C 237.804688 355.207031 237.515625 353.011719 235.898438 352.285156 C 234.945312 351.855469 233.910156 351.644531 232.882812 351.589844 C 227.875 351.34375 222.871094 351.621094 217.902344 352.164062 C 212.023438 352.808594 206.320312 354.332031 200.613281 355.863281 C 191.96875 358.183594 183.632812 361.457031 175.085938 364.082031 C 169.261719 365.875 163.390625 367.539062 157.640625 369.578125 C 156.0625 370.136719 154.484375 370.714844 153.304688 371.882812 C 164.390625 373.925781 175.820312 374.996094 187.496094 374.996094 C 231.238281 374.996094 271.480469 360.019531 303.375 334.910156 C 302.96875 334.195312 302.421875 333.582031 301.757812 333.0625 C 301.402344 332.789062 301.019531 332.542969 300.601562 332.320312 C 300.296875 332.152344 299.96875 332 299.628906 331.855469 Z M 299.628906 331.855469 " fill-opacity="1" fill-rule="nonzero"/><path fill="#c36600" d="M 113.46875 226.449219 C 114.214844 224.507812 115.878906 223.476562 117.847656 223.625 C 120.882812 223.859375 123.898438 224.421875 126.855469 225.214844 C 127.441406 224.484375 127.253906 223.4375 127.839844 222.71875 C 130.328125 219.667969 132.261719 216.207031 134.789062 213.179688 C 137.492188 209.941406 140.042969 206.589844 141.605469 202.601562 C 141.992188 201.613281 142.363281 200.613281 142.757812 199.625 C 143.933594 196.660156 145.285156 193.800781 147.789062 191.589844 C 147.808594 189.976562 147.457031 188.460938 146.878906 186.953125 C 145.257812 182.730469 141.925781 180.851562 137.816406 179.757812 C 133.792969 178.691406 129.648438 178.429688 125.59375 177.589844 C 124.277344 177.316406 123.109375 176.898438 122.707031 175.34375 C 122.457031 174.386719 121.980469 173.488281 121.601562 172.5625 C 120.992188 171.066406 119.738281 170.183594 118.539062 170.398438 C 117.070312 170.664062 116.25 171.613281 116.257812 173.445312 C 116.269531 175.992188 115.855469 178.515625 115.929688 181.070312 C 115.984375 182.824219 115.441406 184.445312 114.203125 185.804688 C 111.601562 188.664062 108.570312 191.058594 105.742188 193.671875 C 101.144531 197.925781 96.546875 202.167969 92.4375 206.898438 C 91.160156 208.367188 89.921875 209.960938 89.585938 211.941406 C 88.738281 216.984375 89.472656 221.921875 91.183594 226.660156 C 93.34375 232.648438 96.125 238.375 99.167969 243.972656 C 99.878906 245.28125 100.863281 246.445312 101.296875 247.90625 C 102.558594 245.761719 103.757812 243.578125 105.089844 241.484375 C 108.171875 236.636719 111.386719 231.871094 113.46875 226.449219 Z M 113.46875 226.449219 " fill-opacity="1" fill-rule="nonzero"/><path fill="#c36600" d="M 173.898438 154.289062 C 173.910156 151.425781 173.738281 148.585938 173.382812 145.734375 C 172.511719 138.753906 171.3125 131.851562 169.417969 125.074219 C 168.859375 123.078125 167.96875 121.105469 168.28125 118.96875 C 168.582031 116.933594 169.574219 115.136719 170.394531 113.261719 C 172.503906 108.445312 172.832031 105.730469 169.566406 101.785156 C 169.269531 101.984375 168.988281 102.214844 168.671875 102.378906 C 161.8125 105.980469 156.03125 110.777344 152.109375 117.597656 C 150.921875 119.667969 149.613281 121.738281 149.730469 124.296875 C 150.90625 124.289062 152.085938 124.21875 153.257812 124.28125 C 155.488281 124.40625 156.933594 126.042969 157.058594 128.289062 C 157.203125 130.84375 156.523438 132.894531 154.25 134.347656 C 153.046875 135.117188 151.835938 135.273438 150.503906 135.164062 C 150.523438 135.480469 150.488281 135.8125 150.570312 136.109375 C 151.269531 138.734375 151.691406 141.421875 152.074219 144.097656 C 152.996094 150.503906 154.179688 156.855469 155.675781 163.148438 C 156.53125 166.730469 158.046875 169.964844 160.644531 172.679688 C 161.898438 173.992188 163.523438 174.640625 164.921875 175.675781 C 166.96875 173.007812 168.527344 170.023438 170.367188 167.21875 C 172.957031 163.285156 173.882812 158.929688 173.898438 154.289062 Z M 173.898438 154.289062 " fill-opacity="1" fill-rule="nonzero"/><path fill="#c36600" d="M 185.5625 263.210938 C 185.5625 263.210938 185.566406 263.210938 185.566406 263.210938 C 185.570312 263.207031 185.570312 263.203125 185.574219 263.203125 C 185.574219 263.203125 185.5625 263.210938 185.5625 263.210938 Z M 185.5625 263.210938 " fill-opacity="1" fill-rule="nonzero"/><path fill="#c36600" d="M 185.394531 264.03125 C 185.5 264.039062 185.625 264.035156 185.710938 264.042969 C 187.457031 264.164062 189.148438 264.5625 190.828125 265.015625 C 191.285156 265.136719 191.742188 265.238281 192.285156 265.003906 C 191.726562 263.949219 191.445312 262.835938 190.445312 262.179688 C 188.902344 262.921875 187.234375 263.078125 185.566406 263.210938 C 185.488281 263.304688 185.410156 263.398438 185.328125 263.492188 C 184.976562 263.921875 185.15625 264.011719 185.394531 264.03125 Z M 185.394531 264.03125 " fill-opacity="1" fill-rule="nonzero"/></svg>